<svg xmlns="http://www.w3.org/2000/svg" viewBox="0 0 38 40" width="38" height="40" overflow="hidden">
  <defs>
    <linearGradient id="fg" x1="0%" y1="0%" x2="100%" y2="100%">
      <stop offset="0%" stop-color="#ffffff"/>
      <stop offset="55%" stop-color="#c4b5fd"/>
      <stop offset="100%" stop-color="#e54b4d"/>
    </linearGradient>
  </defs>
  <path fill="url(#fg)" d="M18.948 1.064C8.473 1.085-.06 9.684 0 20.158a18.984 18.984 0 0 0 17.056 18.777.217.217 0 0 0 .221-.13.222.222 0 0 0 .019-.088V20.049H15.82a.218.218 0 0 1-.219-.218v-2.946a.218.218 0 0 1 .219-.219h4.63a.218.218 0 0 1 .218.219v21.832a.218.218 0 0 0 .24.218 18.984 18.984 0 0 0-1.961-37.87Zm5.395 33.642a.218.218 0 0 1-.291-.206v-3.116a.327.327 0 0 1 .187-.296 12.227 12.227 0 0 0-5.445-23.266c-6.494.1-11.823 5.337-12.03 11.829a12.24 12.24 0 0 0 6.967 11.437.327.327 0 0 1 .188.296V34.5a.219.219 0 0 1-.292.206A15.63 15.63 0 0 1 3.383 19.905c.074-8.476 7-15.396 15.478-15.458 8.662-.07 15.726 6.956 15.726 15.602 0 6.723-4.27 12.466-10.244 14.657Z"/>
</svg>
